<svg width="158" height="48" viewBox="0 0 158 48" fill="none" xmlns="http://www.w3.org/2000/svg">
<path d="M18.1686 43.2555C17.7534 43.5684 17.0804 43.7615 16.3594 43.7615C14.4585 43.7615 13 42.3244 13 40.3997C13 38.4751 14.477 37.001 16.3497 37.001C16.9954 37.001 17.5766 37.1394 18.066 37.4153V38.6584C17.5864 38.3367 17.0227 38.1612 16.4698 38.1612C15.1872 38.1612 14.2553 39.1011 14.2553 40.3812C14.2553 41.7715 15.28 42.5915 16.507 42.5915C17.0794 42.5915 17.6782 42.3887 18.1676 42.0114V43.2545L18.1686 43.2555Z" fill="#A8AAAD"/>
<path d="M24.4743 38.4664L25.3974 40.9808H23.5424L24.4743 38.4664ZM23.8657 37.1121L21.3376 43.6513H22.5831L23.1917 42.0494H25.7569L26.3655 43.6513H27.611L25.0829 37.1121H23.8657Z" fill="#A8AAAD"/>
<path d="M29.8197 37.1219V38.208H31.7021V43.6513H32.9203V38.208H34.8027V37.1219H29.8197Z" fill="#A8AAAD"/>
<path d="M38.5148 37.1219V43.6513H42.7877V42.5827H39.7232V40.8882H42.1498V39.8294H39.7232V38.1904H42.6763V37.1219H38.5148Z" fill="#A8AAAD"/>
<path d="M49.1568 40.1794C49.8309 40.1794 50.2275 39.765 50.2275 39.1752C50.2275 38.5853 49.8309 38.1807 49.1568 38.1807H47.9758V40.1794H49.1568ZM46.7576 37.1219H49.2311C50.5967 37.1219 51.4915 37.9603 51.4915 39.1576C51.4915 39.9961 50.9377 40.7507 50.08 40.9994L51.8794 43.6523H50.4766L48.8618 41.2207H47.9758V43.6523H46.7576V37.1219Z" fill="#A8AAAD"/>
<path d="M56.8829 37.1131H55.6647V43.6523H56.8829V37.1131Z" fill="#A8AAAD"/>
<path d="M65.5497 37.1121V41.5327L62.2928 37.1121H61.2495V43.6513H62.4676V39.2307L65.7245 43.6513H66.7581V37.1121H65.5497Z" fill="#A8AAAD"/>
<path d="M76.5981 43.1355C75.9338 43.5596 75.0019 43.7615 74.1989 43.7615C72.1318 43.7615 70.7388 42.3341 70.7388 40.3715C70.7388 38.4088 72.3624 37.001 74.2546 37.001C75.0302 37.001 75.7316 37.1667 76.3958 37.5265V38.7784C75.7042 38.3367 75.0019 38.1612 74.2917 38.1612C73.0178 38.1612 71.9843 39.0455 71.9843 40.427C71.9843 41.8086 72.8703 42.61 74.2272 42.61C74.5769 42.61 75.039 42.5457 75.4727 42.4072V41.0803H73.9312V40.0673H76.5981V43.1355Z" fill="#A8AAAD"/>
<path d="M88.4602 38.6233C88.4602 38.2821 88.1466 37.9877 87.7129 37.9877C87.2791 37.9877 86.9568 38.2733 86.9568 38.6321C86.9568 38.9909 87.1873 39.2395 87.5292 39.5993C88.1378 39.2307 88.4602 38.9821 88.4602 38.6233ZM87.2801 40.8424C86.7545 41.1554 86.44 41.441 86.4312 41.8466C86.4224 42.4179 87.0496 42.7124 87.6591 42.7124C88.0831 42.7124 88.4524 42.6022 88.7474 42.4082L87.2801 40.8424ZM90.2058 42.4453L91.3312 43.6513H89.9196L89.4771 43.1814C88.9691 43.5401 88.342 43.7615 87.6406 43.7615C86.3394 43.7615 85.2414 43.0527 85.2414 41.948C85.2414 41.2022 85.7298 40.6581 86.5973 40.1238C86.1264 39.6081 85.8314 39.221 85.8314 38.6409C85.8314 37.7839 86.5875 37.0107 87.7138 37.0107C88.8402 37.0107 89.5689 37.7751 89.5689 38.6136C89.5689 39.2951 89.1537 39.7368 88.212 40.3169L89.4488 41.6428C89.6793 41.2012 89.7809 40.6659 89.7262 40.1229H90.8056C90.8975 40.9886 90.6669 41.8096 90.2058 42.4453Z" fill="#A8AAAD"/>
<path d="M99.7498 37.1219V43.6513H104.023V42.5827H100.959V40.8882H103.386V39.8294H100.959V38.1904H103.911V37.1219H99.7498Z" fill="#A8AAAD"/>
<path d="M112.053 37.1121L110.253 42.0582L108.463 37.1121H107.218L109.663 43.6513H110.854L113.299 37.1121H112.053Z" fill="#A8AAAD"/>
<path d="M116.901 37.1219V43.6513H121.173V42.5827H118.109V40.8882H120.537V39.8294H118.109V38.1904H121.062V37.1219H116.901Z" fill="#A8AAAD"/>
<path d="M129.444 37.1121V41.5327L126.186 37.1121H125.144V43.6513H126.362V39.2307L129.619 43.6513H130.652V37.1121H129.444Z" fill="#A8AAAD"/>
<path d="M134.374 37.1219V38.208H136.256V43.6513H137.475V38.208H139.357V37.1219H134.374Z" fill="#A8AAAD"/>
<path d="M146.631 37.4348V38.6409C146.178 38.3182 145.551 38.1163 144.997 38.1163C144.389 38.1163 143.937 38.365 143.937 38.8349C143.937 39.2678 144.315 39.4794 145.08 39.7923C146.022 40.1697 147 40.5752 147 41.7725C147 42.9698 146.049 43.7527 144.619 43.7527C143.835 43.7527 143.125 43.5226 142.672 43.1999V41.91C143.152 42.3244 143.845 42.6461 144.546 42.6461C145.21 42.6461 145.709 42.3331 145.709 41.8076C145.709 41.3192 145.229 41.0988 144.407 40.7576C143.604 40.4261 142.682 40.0117 142.682 38.8876C142.682 37.7634 143.587 37 144.952 37C145.607 37 146.198 37.1745 146.632 37.4329" fill="#A8AAAD"/>
<path d="M11.6372 26.6268H0L5.99993 19.3426C6.59745 18.6138 7.5065 17.4698 8.07846 16.637C8.57213 15.9082 8.98751 15.1537 8.98751 14.1393C8.98751 12.6825 8.02653 11.3297 6.10378 11.3297C4.18102 11.3297 3.14255 12.8385 3.03871 14.4777H0.49367C0.571156 12.7865 1.27252 11.4337 1.94832 10.6793C2.5722 9.97684 3.81836 8.98802 6.00073 8.98802C9.68967 8.98802 11.5861 11.5113 11.5861 14.2169C11.5861 15.6474 11.0405 16.8186 10.3391 17.8594C9.71524 18.7962 8.91083 19.7586 7.87156 20.9811L5.16996 24.1811H11.638L11.6372 26.6268Z" fill="white"/>
<path d="M24.6116 15.3625V20.9555H20.663L24.6116 15.3625ZM27.1566 8L16.0387 23.3491H24.6108V26.6268H27.1566V23.3491H29.0267V20.9035H27.1566V8Z" fill="white"/>
<path d="M56.2744 13.3329C54.3524 11.5897 52.5599 11.4081 51.5725 11.4081C47.8061 11.4081 45.2603 14.1913 45.2603 18.0162C45.2603 21.8411 47.91 24.5195 51.5981 24.5195C53.6766 24.5195 55.2871 23.4531 56.2744 22.5163V25.6636C54.5338 26.7044 52.7157 26.9644 51.5206 26.9644C48.3773 26.9644 46.4034 25.5332 45.3905 24.5707C43.3639 22.6715 42.6114 20.4602 42.6114 18.0154C42.6114 14.8153 43.9358 12.6041 45.3905 11.2249C47.183 9.53363 49.2608 8.96162 51.6508 8.96162C53.2357 8.96162 54.7678 9.24802 56.2744 10.2104V13.3329Z" fill="white"/>
<path d="M71.2483 19.941L68.6769 14.0617L66.0016 19.941H71.2483ZM72.3131 22.4387H64.9096L63.0132 26.6268H60.1559L68.7807 8.26081L76.9894 26.6276H74.132L72.3139 22.4395L72.3131 22.4387Z" fill="white"/>
<path d="M84.4775 17.2354H85.3091C86.0368 17.2354 88.998 17.157 88.998 14.4001C88.998 11.9545 86.6862 11.7209 85.3874 11.7209H84.4783V17.2362L84.4775 17.2354ZM84.9193 9.27523C87.0233 9.27523 88.3741 9.53523 89.4909 10.2896C91.3873 11.5649 91.5431 13.6193 91.5431 14.3737C91.5431 16.8714 90.0101 18.6922 87.6983 19.2122L93.1016 26.6268H89.9063L84.9448 19.525H84.4775V26.6268H81.8278V9.27523H84.9193Z" fill="white"/>
<path d="M100.124 17.2354H100.956C101.683 17.2354 104.644 17.157 104.644 14.4001C104.644 11.9545 102.333 11.7209 101.034 11.7209H100.125V17.2362L100.124 17.2354ZM100.566 9.27523C102.67 9.27523 104.021 9.53523 105.137 10.2896C107.034 11.5649 107.19 13.6193 107.19 14.3737C107.19 16.8714 105.657 18.6922 103.345 19.2122L108.748 26.6268H105.553L100.591 19.525H100.124V26.6268H97.4743V9.27523H100.566Z" fill="white"/>
<path d="M127.182 17.9642C127.182 14.1137 124.532 11.4089 120.817 11.4089C117.103 11.4089 114.453 14.1145 114.453 17.9642C114.453 21.8139 117.103 24.5203 120.817 24.5203C124.532 24.5203 127.182 21.8147 127.182 17.9642ZM129.831 17.9642C129.831 23.0635 126.013 26.9652 120.817 26.9652C115.622 26.9652 111.803 23.0627 111.803 17.9642C111.803 12.8657 115.622 8.96322 120.817 8.96322C126.013 8.96322 129.831 12.8657 129.831 17.9642Z" fill="white"/>
<path d="M139.467 11.7721V26.6268H136.818V11.7721H132.844V9.27523H143.442V11.7721H139.467Z" fill="white"/>
<path d="M155.402 13.1249C155.246 12.7345 155.012 12.3705 154.623 12.0329C154.077 11.5905 153.506 11.4081 152.753 11.4081C151.142 11.4081 150.311 12.3705 150.311 13.4889C150.311 14.0089 150.493 14.9193 152.181 15.5962L153.921 16.2986C157.117 17.5994 157.999 19.4202 157.999 21.3979C157.999 24.7019 155.661 26.9652 152.415 26.9652C150.414 26.9652 149.219 26.2108 148.337 25.2219C147.401 24.1811 146.986 23.0371 146.882 21.8403L149.506 21.2675C149.506 22.1259 149.818 22.9323 150.233 23.4787C150.727 24.1035 151.454 24.5195 152.493 24.5195C154.103 24.5195 155.35 23.3491 155.35 21.6059C155.35 19.8626 154 19.1082 152.856 18.6402L151.194 17.9378C149.766 17.3394 147.662 16.1426 147.662 13.5409C147.662 11.2001 149.48 8.96242 152.727 8.96242C154.597 8.96242 155.663 9.66483 156.208 10.1328C156.676 10.5497 157.169 11.1473 157.533 11.8761L155.402 13.1249Z" fill="white"/>
</svg>
