<svg width="193" height="39" viewBox="0 0 193 39" fill="none" xmlns="http://www.w3.org/2000/svg">
<path d="M0 32C0 14.3269 14.3269 0 32 0H161C178.673 0 193 14.3269 193 32V39H0V32Z" fill="#B4C7A3"/>
<path d="M70.2917 15.996H72.2717C72.7157 15.996 73.5797 15.996 74.2277 16.5C74.6957 16.86 74.9717 17.484 74.9717 18.156C74.9717 19.188 74.2877 19.608 74.0717 19.728C74.5997 19.812 74.9117 20.04 75.1157 20.232C75.5957 20.688 75.6917 21.312 75.6917 21.732C75.6917 22.2 75.5597 22.86 75.0077 23.352C74.4077 23.88 73.6757 24 72.9797 24H70.2917V15.996ZM71.8517 17.268V19.32H72.2957C72.5357 19.32 73.5077 19.296 73.5077 18.276C73.5077 17.544 72.9437 17.268 72.3077 17.268H71.8517ZM71.8517 20.52V22.728H72.5237C72.8117 22.728 73.2437 22.716 73.5917 22.512C73.9757 22.284 74.0837 21.9 74.0837 21.588C74.0837 21.336 73.9997 20.904 73.4957 20.676C73.1597 20.52 72.7637 20.52 72.4277 20.52H71.8517ZM84.7434 24L84.0354 22.32H80.8074L80.0994 24H78.4074L81.8514 15.996H83.0754L86.4234 24H84.7434ZM81.2994 21.048H83.5794L82.4394 18.168L81.2994 21.048ZM95.0681 21.888V23.712C94.5881 23.964 93.9521 24.18 93.0881 24.18C91.6841 24.18 90.8321 23.7 90.1601 23.064C89.2361 22.176 88.8761 21.18 88.8761 20.004C88.8761 18.552 89.4761 17.508 90.1601 16.872C90.9641 16.116 91.9601 15.816 93.1001 15.816C93.6641 15.816 94.3361 15.912 95.0681 16.308V18.132C94.3361 17.292 93.4241 17.232 93.1361 17.232C91.5281 17.232 90.4841 18.552 90.4841 20.028C90.4841 21.804 91.8521 22.764 93.1961 22.764C93.9401 22.764 94.6001 22.44 95.0681 21.888ZM100.222 15.996V19.38L103.162 15.996H105.13L101.746 19.692L105.31 24H103.246L100.402 20.412L100.222 20.592V24H98.6623V15.996H100.222ZM117.732 17.34H115.932V24H114.372V17.34H112.572V15.996H117.732V17.34ZM124.417 15.816C126.937 15.816 128.689 17.568 128.689 20.004C128.689 22.44 126.937 24.18 124.417 24.18C121.897 24.18 120.145 22.44 120.145 20.004C120.145 17.568 121.897 15.816 124.417 15.816ZM124.417 22.764C125.977 22.764 127.081 21.624 127.081 20.004C127.081 18.384 125.977 17.232 124.417 17.232C122.857 17.232 121.753 18.384 121.753 20.004C121.753 21.624 122.857 22.764 124.417 22.764ZM141.567 17.34H139.767V24H138.207V17.34H136.407V15.996H141.567V17.34ZM148.252 15.816C150.772 15.816 152.524 17.568 152.524 20.004C152.524 22.44 150.772 24.18 148.252 24.18C145.732 24.18 143.98 22.44 143.98 20.004C143.98 17.568 145.732 15.816 148.252 15.816ZM148.252 22.764C149.812 22.764 150.916 21.624 150.916 20.004C150.916 18.384 149.812 17.232 148.252 17.232C146.692 17.232 145.588 18.384 145.588 20.004C145.588 21.624 146.692 22.764 148.252 22.764ZM156.122 15.996H158.45C159.35 15.996 159.974 16.092 160.562 16.608C161.21 17.184 161.378 17.964 161.378 18.54C161.378 18.852 161.33 19.716 160.718 20.328C160.274 20.772 159.614 21.036 158.69 21.036H157.682V24H156.122V15.996ZM157.682 17.34V19.692H158.318C158.618 19.692 159.002 19.692 159.338 19.44C159.626 19.212 159.77 18.852 159.77 18.504C159.77 18.06 159.554 17.76 159.326 17.592C159.002 17.364 158.594 17.34 158.222 17.34H157.682Z" fill="#1A4122"/>
<path d="M55 24L43 16L31 24" stroke="#1A4122" stroke-width="2"/>
</svg>
