<svg width="38" height="38" viewBox="0 0 38 38" fill="none" xmlns="http://www.w3.org/2000/svg">
    <g clip-path="url(#clip0_2759_5500)">
        <path d="M19 38C8.52354 38 0 29.4766 0 19C0 8.5234 8.52354 0 19 0C29.4765 0 38 8.5234 38 19C38 29.4766 29.4766 38 19 38ZM19 0.999898C9.07476 0.999898 0.999898 9.07461 0.999898 19C0.999898 28.9254 9.07476 37.0001 19 37.0001C28.9252 37.0001 37.0001 28.9252 37.0001 19C37.0001 9.07476 28.9254 0.999898 19 0.999898Z" fill="#1C1B1A"/>
        <path d="M7.97266 12.5815H9.19052C10.3096 12.5815 10.9614 13.2288 10.9614 14.1365V14.1456C10.9614 15.0533 10.3005 15.7275 9.17256 15.7275H7.97266V12.5815ZM8.84451 13.3501V14.9545H9.19957C9.72541 14.9545 10.0714 14.667 10.0714 14.1591V14.15C10.0714 13.6467 9.72541 13.3501 9.19957 13.3501H8.84451Z" fill="#1C1B1A"/>
        <path d="M11.2881 14.1634V14.1544C11.2881 13.2512 12.0162 12.5186 12.987 12.5186C13.9578 12.5186 14.6767 13.2422 14.6767 14.1455V14.1544C14.6767 15.0578 13.9487 15.7904 12.9779 15.7904C12.0071 15.7904 11.2881 15.0667 11.2881 14.1634ZM13.7824 14.1634V14.1544C13.7824 13.6961 13.4588 13.3051 12.9779 13.3051C12.497 13.3051 12.178 13.6916 12.178 14.1455V14.1544C12.178 14.6084 12.5059 15.004 12.987 15.004C13.4634 15.004 13.7824 14.6175 13.7824 14.1634Z" fill="#1C1B1A"/>
        <path d="M15.001 14.1634V14.1544C15.001 13.2512 15.7292 12.5186 16.6999 12.5186C17.6705 12.5186 18.3896 13.2422 18.3896 14.1455V14.1544C18.3896 15.0578 17.6616 15.7904 16.6908 15.7904C15.72 15.7904 15.001 15.0667 15.001 14.1634ZM17.4953 14.1634V14.1544C17.4953 13.6961 17.1717 13.3051 16.6908 13.3051C16.2099 13.3051 15.8909 13.6916 15.8909 14.1455V14.1544C15.8909 14.6084 16.219 15.004 16.6999 15.004C17.1763 15.004 17.4953 14.6175 17.4953 14.1634Z" fill="#1C1B1A"/>
        <path d="M18.8574 12.5815H19.7293V14.9634H21.2528V15.7275H18.8574V12.5815Z" fill="#1C1B1A"/>
        <path d="M21.5898 12.5815H24.1202V13.3185H22.4526V13.7994H23.9628V14.487H22.4526V14.986H24.1426V15.7275H21.5898V12.5815Z" fill="#1C1B1A"/>
        <path d="M25.5663 14.55L24.3662 12.5815H25.3594L26.0066 13.7276L26.6582 12.5815H27.6336L26.4381 14.5365V15.7275H25.5663V14.55Z" fill="#1C1B1A"/>
        <path d="M7.86914 18.4486V18.4395C7.86914 17.5227 8.57036 16.8037 9.52293 16.8037C10.1658 16.8037 10.5792 17.0733 10.8579 17.4554L10.2017 17.9633C10.0219 17.7429 9.81508 17.5947 9.51403 17.5947C9.07365 17.5947 8.7634 17.9722 8.7634 18.4306V18.4395C8.7634 18.9115 9.07365 19.2801 9.51403 19.2801C9.84208 19.2801 10.0354 19.1273 10.2241 18.898L10.8803 19.3654C10.5837 19.7743 10.1838 20.0754 9.49162 20.0754C8.59277 20.0754 7.86914 19.388 7.86914 18.4486Z" fill="#1C1B1A"/>
        <path d="M11.2588 16.8667H12.7462C13.2271 16.8667 13.5598 16.9925 13.7709 17.2038C13.9554 17.3879 14.0496 17.6262 14.0496 17.9363V17.9452C14.0496 18.4307 13.7935 18.7497 13.4025 18.9161L14.153 20.0125H13.1509L12.5172 19.0598H12.1306V20.0125H11.2588V16.8667ZM12.7103 18.3767C13.0025 18.3767 13.1777 18.2329 13.1777 18.0037V17.9948C13.1777 17.743 12.9934 17.6172 12.7059 17.6172H12.1306V18.3767H12.7103Z" fill="#1C1B1A"/>
        <path d="M14.5322 16.8662H17.0625V17.6035H15.395V18.0842H16.9052V18.7719H15.395V19.2708H17.085V20.0124H14.5322V16.8662Z" fill="#1C1B1A"/>
        <path d="M18.6718 16.8438H19.5122L20.8513 20.0121H19.9166L19.6919 19.4459H18.4741L18.2493 20.0121H17.3369L18.6718 16.8438ZM19.4357 18.7673L19.0852 17.8773L18.7302 18.7673H19.4357Z" fill="#1C1B1A"/>
        <path d="M21.5261 17.6307H20.5869V16.8667H23.3418V17.6307H22.398V20.0125H21.5261V17.6307Z" fill="#1C1B1A"/>
        <path d="M24.5642 16.8667H23.6924V20.0127H24.5642V16.8667Z" fill="#1C1B1A"/>
        <path d="M24.8701 16.8662H25.8409L26.5554 18.8573L27.2745 16.8662H28.2274L26.9509 20.0348H26.142L24.8701 16.8662Z" fill="#1C1B1A"/>
        <path d="M28.5332 16.8662H31.0634V17.6035H29.396V18.0842H30.9062V18.7719H29.396V19.2708H31.086V20.0124H28.5332V16.8662Z" fill="#1C1B1A"/>
        <path d="M7.86914 22.7338V22.7247C7.86914 21.808 8.57036 21.0889 9.52293 21.0889C10.1658 21.0889 10.5792 21.3585 10.8579 21.7405L10.2017 22.2484C10.0219 22.0281 9.81508 21.8799 9.51403 21.8799C9.07365 21.8799 8.7634 22.2573 8.7634 22.7158V22.7247C8.7634 23.1967 9.07365 23.5652 9.51403 23.5652C9.84208 23.5652 10.0354 23.4124 10.2241 23.1832L10.8803 23.6506C10.5837 24.0596 10.1838 24.3607 9.49162 24.3607C8.59277 24.3607 7.86914 23.673 7.86914 22.7338Z" fill="#1C1B1A"/>
        <path d="M11.0645 22.7338V22.7247C11.0645 21.8215 11.7927 21.0889 12.7633 21.0889C13.734 21.0889 14.453 21.8125 14.453 22.7158V22.7247C14.453 23.628 13.7251 24.3607 12.7543 24.3607C11.7835 24.3607 11.0645 23.6372 11.0645 22.7338ZM13.5588 22.7338V22.7247C13.5588 22.2664 13.2352 21.8754 12.7543 21.8754C12.2734 21.8754 11.9544 22.2618 11.9544 22.7158V22.7247C11.9544 23.1787 12.2825 23.5741 12.7633 23.5741C13.2398 23.5741 13.5588 23.1878 13.5588 22.7338Z" fill="#1C1B1A"/>
        <path d="M15.6443 23.4214H14.7588V24.2977H15.6443V23.4214Z" fill="#1C1B1A"/>
        <path d="M31.12 25.8926H7.88477V26.8925H31.12V25.8926Z" fill="#1C1B1A"/>
    </g>
    <defs>
        <clipPath id="clip0_2759_5500">
            <rect width="38" height="38" fill="white"/>
        </clipPath>
    </defs>
</svg>
