<svg width="42" height="42" viewBox="0 0 42 42" fill="none" xmlns="http://www.w3.org/2000/svg">
<path d="M28.875 10.5H23.625C22.6585 10.5 21.875 11.2835 21.875 12.25V17.5H28.875C29.074 17.4956 29.2628 17.5882 29.3811 17.7483C29.4994 17.9085 29.5326 18.116 29.47 18.305L28.175 22.155C28.0557 22.5083 27.7254 22.7472 27.3525 22.75H21.875V35.875C21.875 36.3582 21.4832 36.75 21 36.75H16.625C16.1418 36.75 15.75 36.3582 15.75 35.875V22.75H13.125C12.6418 22.75 12.25 22.3582 12.25 21.875V18.375C12.25 17.8918 12.6418 17.5 13.125 17.5H15.75V12.25C15.75 8.384 18.8841 5.25 22.75 5.25H28.875C29.3582 5.25 29.75 5.64175 29.75 6.125V9.625C29.75 10.1082 29.3582 10.5 28.875 10.5Z" fill="#E9E4E0"/>
</svg>
