<svg width="25" height="24" viewBox="0 0 25 24" fill="none" xmlns="http://www.w3.org/2000/svg">
<g id="Icon / Facebook">
<path id="Vector" d="M16.9004 6H13.9004C13.3481 6 12.9004 6.44772 12.9004 7V10H16.9004C17.0141 9.99748 17.122 10.0504 17.1896 10.1419C17.2572 10.2334 17.2762 10.352 17.2404 10.46L16.5004 12.66C16.4322 12.8619 16.2435 12.9984 16.0304 13H12.9004V20.5C12.9004 20.7761 12.6765 21 12.4004 21H9.90039C9.62425 21 9.40039 20.7761 9.40039 20.5V13H7.90039C7.62425 13 7.40039 12.7761 7.40039 12.5V10.5C7.40039 10.2239 7.62425 10 7.90039 10H9.40039V7C9.40039 4.79086 11.1913 3 13.4004 3H16.9004C17.1765 3 17.4004 3.22386 17.4004 3.5V5.5C17.4004 5.77614 17.1765 6 16.9004 6Z" fill="#1A4122"/>
</g>
</svg>
