<svg width="25" height="24" viewBox="0 0 25 24" fill="none" xmlns="http://www.w3.org/2000/svg">
<g id="Icon / Instagram">
<path id="Vector" fill-rule="evenodd" clip-rule="evenodd" d="M16.4004 3H8.40039C5.63897 3 3.40039 5.23858 3.40039 8V16C3.40039 18.7614 5.63897 21 8.40039 21H16.4004C19.1618 21 21.4004 18.7614 21.4004 16V8C21.4004 5.23858 19.1618 3 16.4004 3ZM19.6504 16C19.6449 17.7926 18.193 19.2445 16.4004 19.25H8.40039C6.60774 19.2445 5.15588 17.7926 5.15039 16V8C5.15588 6.20735 6.60774 4.75549 8.40039 4.75H16.4004C18.193 4.75549 19.6449 6.20735 19.6504 8V16ZM17.1504 8.25C17.7027 8.25 18.1504 7.80228 18.1504 7.25C18.1504 6.69772 17.7027 6.25 17.1504 6.25C16.5981 6.25 16.1504 6.69772 16.1504 7.25C16.1504 7.80228 16.5981 8.25 17.1504 8.25ZM12.4004 7.5C9.91511 7.5 7.90039 9.51472 7.90039 12C7.90039 14.4853 9.91511 16.5 12.4004 16.5C14.8857 16.5 16.9004 14.4853 16.9004 12C16.9031 10.8057 16.4298 9.65957 15.5853 8.81508C14.7408 7.97059 13.5947 7.49734 12.4004 7.5ZM9.65039 12C9.65039 13.5188 10.8816 14.75 12.4004 14.75C13.9192 14.75 15.1504 13.5188 15.1504 12C15.1504 10.4812 13.9192 9.25 12.4004 9.25C10.8816 9.25 9.65039 10.4812 9.65039 12Z" fill="#1A4122"/>
</g>
</svg>
