<svg width="42" height="42" viewBox="0 0 42 42" fill="none" xmlns="http://www.w3.org/2000/svg">
<g id="Icon / Instagram">
<path id="Vector" fill-rule="evenodd" clip-rule="evenodd" d="M28 5.25H14C9.16752 5.25 5.25 9.16752 5.25 14V28C5.25 32.8325 9.16752 36.75 14 36.75H28C32.8325 36.75 36.75 32.8325 36.75 28V14C36.75 9.16752 32.8325 5.25 28 5.25ZM33.6875 28C33.6779 31.1371 31.1371 33.6779 28 33.6875H14C10.8629 33.6779 8.32211 31.1371 8.3125 28V14C8.32211 10.8629 10.8629 8.32211 14 8.3125H28C31.1371 8.32211 33.6779 10.8629 33.6875 14V28ZM29.3125 14.4375C30.279 14.4375 31.0625 13.654 31.0625 12.6875C31.0625 11.721 30.279 10.9375 29.3125 10.9375C28.346 10.9375 27.5625 11.721 27.5625 12.6875C27.5625 13.654 28.346 14.4375 29.3125 14.4375ZM21 13.125C16.6508 13.125 13.125 16.6508 13.125 21C13.125 25.3493 16.6508 28.875 21 28.875C25.3493 28.875 28.875 25.3493 28.875 21C28.8797 18.91 28.0515 16.9042 26.5736 15.4264C25.0957 13.9485 23.09 13.1203 21 13.125ZM16.1875 21C16.1875 23.6579 18.3421 25.8125 21 25.8125C23.6579 25.8125 25.8125 23.6579 25.8125 21C25.8125 18.3421 23.6579 16.1875 21 16.1875C18.3421 16.1875 16.1875 18.3421 16.1875 21Z" fill="#E9E4E0"/>
</g>
</svg>
