<svg width="42" height="42" viewBox="0 0 42 42" fill="none" xmlns="http://www.w3.org/2000/svg">
<g id="Icon / LinkedIn">
<path id="Vector" fill-rule="evenodd" clip-rule="evenodd" d="M8.75 5.25H33.25C35.1831 5.25 36.75 6.817 36.75 8.75V33.25C36.75 35.1831 35.1831 36.75 33.25 36.75H8.75C6.817 36.75 5.25 35.1831 5.25 33.25V8.75C5.25 6.817 6.817 5.25 8.75 5.25ZM14 31.5C14.4832 31.5 14.875 31.1082 14.875 30.625V18.375C14.875 17.8918 14.4832 17.5 14 17.5H11.375C10.8918 17.5 10.5 17.8918 10.5 18.375V30.625C10.5 31.1082 10.8918 31.5 11.375 31.5H14ZM12.6875 15.75C11.2377 15.75 10.0625 14.5748 10.0625 13.125C10.0625 11.6752 11.2377 10.5 12.6875 10.5C14.1373 10.5 15.3125 11.6752 15.3125 13.125C15.3125 14.5748 14.1373 15.75 12.6875 15.75ZM30.625 31.5C31.1082 31.5 31.5 31.1082 31.5 30.625V22.575C31.5569 19.7939 29.5008 17.4204 26.74 17.08C24.8097 16.9037 22.9395 17.8052 21.875 19.425V18.375C21.875 17.8918 21.4832 17.5 21 17.5H18.375C17.8918 17.5 17.5 17.8918 17.5 18.375V30.625C17.5 31.1082 17.8918 31.5 18.375 31.5H21C21.4832 31.5 21.875 31.1082 21.875 30.625V24.0625C21.875 22.6128 23.0503 21.4375 24.5 21.4375C25.9497 21.4375 27.125 22.6128 27.125 24.0625V30.625C27.125 31.1082 27.5168 31.5 28 31.5H30.625Z" fill="#E9E4E0"/>
</g>
</svg>
