<svg width="25" height="24" viewBox="0 0 25 24" fill="none" xmlns="http://www.w3.org/2000/svg">
<path fill-rule="evenodd" clip-rule="evenodd" d="M5.40039 3H19.4004C20.505 3 21.4004 3.89543 21.4004 5V19C21.4004 20.1046 20.505 21 19.4004 21H5.40039C4.29582 21 3.40039 20.1046 3.40039 19V5C3.40039 3.89543 4.29582 3 5.40039 3ZM8.40039 18C8.67653 18 8.90039 17.7761 8.90039 17.5V10.5C8.90039 10.2239 8.67653 10 8.40039 10H6.90039C6.62425 10 6.40039 10.2239 6.40039 10.5V17.5C6.40039 17.7761 6.62425 18 6.90039 18H8.40039ZM7.65039 9C6.82196 9 6.15039 8.32843 6.15039 7.5C6.15039 6.67157 6.82196 6 7.65039 6C8.47882 6 9.15039 6.67157 9.15039 7.5C9.15039 8.32843 8.47882 9 7.65039 9ZM17.9004 18C18.1765 18 18.4004 17.7761 18.4004 17.5V12.9C18.4329 11.3108 17.258 9.95452 15.6804 9.76C14.5774 9.65925 13.5087 10.1744 12.9004 11.1V10.5C12.9004 10.2239 12.6765 10 12.4004 10H10.9004C10.6243 10 10.4004 10.2239 10.4004 10.5V17.5C10.4004 17.7761 10.6243 18 10.9004 18H12.4004C12.6765 18 12.9004 17.7761 12.9004 17.5V13.75C12.9004 12.9216 13.572 12.25 14.4004 12.25C15.2288 12.25 15.9004 12.9216 15.9004 13.75V17.5C15.9004 17.7761 16.1243 18 16.4004 18H17.9004Z" fill="#1A4122"/>
</svg>
