<svg width="42" height="42" viewBox="0 0 42 42" fill="none" xmlns="http://www.w3.org/2000/svg">
<g id="Icon / Twitter">
<path id="Vector" d="M36.7024 11.7555C35.8897 12.8396 34.9073 13.7853 33.7931 14.5561C33.7931 14.8393 33.7931 15.1225 33.7931 15.4214C33.802 20.5644 31.7477 25.4959 28.0907 29.1104C24.4335 32.7248 19.4796 34.7198 14.3396 34.6481C11.368 34.6581 8.43446 33.9796 5.76877 32.6657C5.62502 32.6029 5.53233 32.4608 5.53287 32.3038V32.1307C5.53287 31.9048 5.71594 31.7217 5.94176 31.7217C8.86277 31.6253 11.6796 30.6126 13.9936 28.8267C11.3497 28.7733 8.97087 27.2071 7.87608 24.7987C7.8208 24.6673 7.838 24.5163 7.92153 24.4006C8.00504 24.2849 8.14278 24.2212 8.28497 24.2324C9.08852 24.3131 9.9001 24.2384 10.6754 24.0121C7.75672 23.4063 5.56365 20.9832 5.24979 18.0175C5.23864 17.8752 5.30239 17.7375 5.41803 17.6538C5.53366 17.5704 5.68445 17.553 5.81595 17.6085C6.59918 17.9541 7.44469 18.1361 8.3007 18.1433C5.74325 16.4648 4.6386 13.2721 5.6115 10.3709C5.71193 10.089 5.9532 9.88071 6.24666 9.82265C6.5401 9.76457 6.84246 9.86524 7.04259 10.0877C10.4937 13.7607 15.2356 15.9494 20.2684 16.1924C20.1396 15.678 20.0762 15.1493 20.0797 14.619C20.1268 11.8383 21.8474 9.36112 24.436 8.34728C27.0244 7.33345 29.9686 7.98356 31.8903 9.99327C33.2 9.74374 34.4663 9.30379 35.6488 8.68737C35.7354 8.6333 35.8453 8.6333 35.9319 8.68737C35.986 8.77403 35.986 8.88391 35.9319 8.97057C35.3591 10.2822 34.3916 11.3822 33.1641 12.1173C34.239 11.9927 35.2949 11.7391 36.3094 11.3621C36.3948 11.304 36.507 11.304 36.5924 11.3621C36.6639 11.3948 36.7175 11.4574 36.7387 11.5332C36.7598 11.609 36.7465 11.6903 36.7024 11.7555Z" fill="#E9E4E0"/>
</g>
</svg>
